<svg id="Capa_1" enable-background="new 0 0 512 512" height="512" viewBox="0 0 512 512" width="512" xmlns="http://www.w3.org/2000/svg"><g><path d="m175.16 32.5c-2.95 0-5.76-1.31-7.66-3.57l-20.17-24c-2.84-3.14-6.88-4.93-11.12-4.93h-126.21c-5.52 0-10 4.48-10 10v472c0 16.57 13.43 30 30 30h19.667l236.333-42.333 32-255.947-32-181.22z" fill="#9691e3"/><path d="m442 32.5h-156v437.167l136 42.333c16.57 0 30-13.43 30-30v-439.5c0-5.52-4.48-10-10-10z" fill="#9691e3"/><path d="m286 93 10 51-10 37.95h-189.5v-78.95c0-5.52 4.48-10 10-10z" fill="#f7f9fa"/><path d="m465.5 93h-179.5v88.95h189.5v-78.95c0-5.52-4.48-10-10-10z" fill="#d7e8ff"/><path d="m286 153.32 17 60.4-17 298.28h-256c16.57 0 30-13.43 30-30v-318.68c0-5.53 4.48-10 10-10z" fill="#9691e3"/><path d="m502 153.32h-216v358.68h216c5.52 0 10-4.48 10-10v-338.68c0-5.53-4.48-10-10-10z" fill="#9691e3"/><path d="m286 227.66 10 100.673-10 109.327c-57.9 0-105-47.1-105-105s47.1-105 105-105z" fill="#9691e39e"/><path d="m391 332.66c0 57.9-47.1 105-105 105v-210c57.9 0 105 47.1 105 105z" fill="#9691e3"/><path d="m286 288.3 5.667 40.7-5.667 48.01c-8.28 0-15-6.71-15-15v-14.35h-14.35c-8.29 0-15-6.72-15-15 0-8.29 6.71-15 15-15h14.35v-14.36c0-8.28 6.72-15 15-15z" fill="#000"/><path d="m330.35 332.66c0 8.28-6.71 15-15 15h-14.35v14.35c0 8.29-6.72 15-15 15v-88.71c8.28 0 15 6.72 15 15v14.36h14.35c8.29 0 15 6.71 15 15z" fill="#000"/></g></svg>